<mxfile host="app.diagrams.net" agent="Mozilla/5.0 (X11; Ubuntu; Linux x86_64; rv:133.0) Gecko/20100101 Firefox/133.0" version="24.9.0">
  <diagram name="Page-1" id="1O84Qculiv_Q7_AZn3g9">
    <mxGraphModel dx="1274" dy="795" grid="1" gridSize="10" guides="1" tooltips="1" connect="1" arrows="1" fold="1" page="1" pageScale="1" pageWidth="1920" pageHeight="1200" math="0" shadow="0">
      <root>
        <mxCell id="0" />
        <mxCell id="1" parent="0" />
        <mxCell id="jP5PenfpiITCSO3P8NVE-8" style="edgeStyle=orthogonalEdgeStyle;rounded=0;orthogonalLoop=1;jettySize=auto;html=1;exitX=1;exitY=0.5;exitDx=0;exitDy=0;entryX=0.5;entryY=0;entryDx=0;entryDy=0;startArrow=classic;startFill=1;" edge="1" parent="1" source="jP5PenfpiITCSO3P8NVE-1" target="jP5PenfpiITCSO3P8NVE-3">
          <mxGeometry relative="1" as="geometry" />
        </mxCell>
        <mxCell id="jP5PenfpiITCSO3P8NVE-1" value="AMQP Listener" style="rounded=1;whiteSpace=wrap;html=1;" vertex="1" parent="1">
          <mxGeometry x="280" y="190" width="120" height="60" as="geometry" />
        </mxCell>
        <mxCell id="jP5PenfpiITCSO3P8NVE-9" style="edgeStyle=orthogonalEdgeStyle;rounded=0;orthogonalLoop=1;jettySize=auto;html=1;exitX=1;exitY=0.5;exitDx=0;exitDy=0;entryX=0.5;entryY=1;entryDx=0;entryDy=0;startArrow=classic;startFill=1;" edge="1" parent="1" source="jP5PenfpiITCSO3P8NVE-2" target="jP5PenfpiITCSO3P8NVE-3">
          <mxGeometry relative="1" as="geometry" />
        </mxCell>
        <mxCell id="jP5PenfpiITCSO3P8NVE-2" value="WEB API" style="rounded=1;whiteSpace=wrap;html=1;" vertex="1" parent="1">
          <mxGeometry x="280" y="340" width="120" height="60" as="geometry" />
        </mxCell>
        <mxCell id="jP5PenfpiITCSO3P8NVE-10" style="edgeStyle=orthogonalEdgeStyle;rounded=0;orthogonalLoop=1;jettySize=auto;html=1;exitX=1;exitY=0.5;exitDx=0;exitDy=0;entryX=0;entryY=0.5;entryDx=0;entryDy=0;startArrow=classic;startFill=1;" edge="1" parent="1" source="jP5PenfpiITCSO3P8NVE-3" target="jP5PenfpiITCSO3P8NVE-4">
          <mxGeometry relative="1" as="geometry" />
        </mxCell>
        <mxCell id="jP5PenfpiITCSO3P8NVE-3" value="adapter" style="rounded=1;whiteSpace=wrap;html=1;" vertex="1" parent="1">
          <mxGeometry x="440" y="260" width="120" height="60" as="geometry" />
        </mxCell>
        <mxCell id="jP5PenfpiITCSO3P8NVE-11" style="edgeStyle=orthogonalEdgeStyle;rounded=0;orthogonalLoop=1;jettySize=auto;html=1;exitX=1;exitY=0.5;exitDx=0;exitDy=0;entryX=0;entryY=0.5;entryDx=0;entryDy=0;startArrow=classic;startFill=1;" edge="1" parent="1" source="jP5PenfpiITCSO3P8NVE-4" target="jP5PenfpiITCSO3P8NVE-6">
          <mxGeometry relative="1" as="geometry" />
        </mxCell>
        <mxCell id="jP5PenfpiITCSO3P8NVE-13" style="edgeStyle=orthogonalEdgeStyle;rounded=0;orthogonalLoop=1;jettySize=auto;html=1;exitX=0.5;exitY=1;exitDx=0;exitDy=0;entryX=0.5;entryY=0;entryDx=0;entryDy=0;startArrow=classic;startFill=1;" edge="1" parent="1" source="jP5PenfpiITCSO3P8NVE-4" target="jP5PenfpiITCSO3P8NVE-5">
          <mxGeometry relative="1" as="geometry" />
        </mxCell>
        <mxCell id="jP5PenfpiITCSO3P8NVE-4" value="business logic" style="rounded=1;whiteSpace=wrap;html=1;" vertex="1" parent="1">
          <mxGeometry x="600" y="260" width="120" height="60" as="geometry" />
        </mxCell>
        <mxCell id="jP5PenfpiITCSO3P8NVE-5" value="database" style="rounded=1;whiteSpace=wrap;html=1;" vertex="1" parent="1">
          <mxGeometry x="600" y="340" width="120" height="60" as="geometry" />
        </mxCell>
        <mxCell id="jP5PenfpiITCSO3P8NVE-12" style="edgeStyle=orthogonalEdgeStyle;rounded=0;orthogonalLoop=1;jettySize=auto;html=1;exitX=1;exitY=0.5;exitDx=0;exitDy=0;entryX=0;entryY=0.5;entryDx=0;entryDy=0;startArrow=classic;startFill=1;" edge="1" parent="1" source="jP5PenfpiITCSO3P8NVE-6" target="jP5PenfpiITCSO3P8NVE-7">
          <mxGeometry relative="1" as="geometry" />
        </mxCell>
        <mxCell id="jP5PenfpiITCSO3P8NVE-6" value="adapter client" style="rounded=1;whiteSpace=wrap;html=1;" vertex="1" parent="1">
          <mxGeometry x="760" y="260" width="120" height="60" as="geometry" />
        </mxCell>
        <mxCell id="jP5PenfpiITCSO3P8NVE-7" value="AMQP Client" style="rounded=1;whiteSpace=wrap;html=1;" vertex="1" parent="1">
          <mxGeometry x="920" y="260" width="120" height="60" as="geometry" />
        </mxCell>
      </root>
    </mxGraphModel>
  </diagram>
</mxfile>
